<svg xmlns="http://www.w3.org/2000/svg" width="71.449" height="92" viewBox="0 0 71.449 92">
  <g id="phone" transform="translate(-57.183)">
    <g id="Group_125165" data-name="Group 125165" transform="translate(57.183 0)">
      <path id="Path_129877" data-name="Path 129877" d="M142.516,415.393a1.8,1.8,0,0,0-1.8-1.8H104.828a1.8,1.8,0,0,0,0,3.594h35.892A1.8,1.8,0,0,0,142.516,415.393Z" transform="translate(-94.793 -339.278)" fill="#003462"/>
      <path id="Path_129878" data-name="Path 129878" d="M111.348,30.461a1.8,1.8,0,0,0,1.8-1.8V9.032A9.042,9.042,0,0,0,104.113,0h-37.9a9.042,9.042,0,0,0-9.032,9.032V82.968A9.042,9.042,0,0,0,66.215,92h37.9a9.042,9.042,0,0,0,9.032-9.032V61.27a1.8,1.8,0,1,0-3.594,0v21.7a5.444,5.444,0,0,1-5.438,5.438h-37.9a5.444,5.444,0,0,1-5.438-5.438V9.032a5.444,5.444,0,0,1,5.438-5.438h37.9a5.444,5.444,0,0,1,5.438,5.438V28.664a1.8,1.8,0,0,0,1.8,1.8Z" transform="translate(-57.183 0)" fill="#003462"/>
      <path id="Path_129879" data-name="Path 129879" d="M153.945,53.233a1.8,1.8,0,0,0,0-3.594H140.786a1.8,1.8,0,1,0,0,3.594Z" transform="translate(-124.29 -40.72)" fill="#003462"/>
      <path id="Path_129880" data-name="Path 129880" d="M260.447,53.233a1.8,1.8,0,1,0,0-3.594h-1.789a1.8,1.8,0,1,0,0,3.594Z" transform="translate(-220.981 -40.72)" fill="#003462"/>
      <path id="Path_129881" data-name="Path 129881" d="M190.626,452.617a1.8,1.8,0,0,0,0,3.594h5.058a1.8,1.8,0,0,0,0-3.594Z" transform="translate(-165.174 -371.288)" fill="#003462"/>
    </g>
    <g id="Group_125166" data-name="Group 125166" transform="translate(82.331 19.954)">
      <path id="Path_129882" data-name="Path 129882" d="M220.291,111.049a23.153,23.153,0,0,0-19.085,36.259l-2.721,6.983,7.337-2.018a23.151,23.151,0,1,0,14.468-41.224Z" transform="translate(-197.14 -111.049)" fill="#d1e0f1"/>
      <path id="Path_129883" data-name="Path 129883" d="M258.6,181.3a5.634,5.634,0,0,0-3.873,1.539L250,180.229a6.552,6.552,0,0,0,0-1.762l4.725-2.611a5.635,5.635,0,1,0-1.7-3.166l-4.486,2.479a6.514,6.514,0,1,0,0,8.358l4.486,2.479a5.654,5.654,0,1,0,5.574-4.7Zm0-11.621a2.06,2.06,0,1,1-2.06,2.06A2.062,2.062,0,0,1,258.6,169.681Zm-15.053,12.587a2.92,2.92,0,1,1,2.92-2.92A2.924,2.924,0,0,1,243.545,182.268Zm15.053,6.747a2.06,2.06,0,1,1,2.06-2.06A2.062,2.062,0,0,1,258.6,189.015Z" transform="translate(-229.863 -156.197)" fill="#4789c8"/>
    </g>
  </g>
</svg>
