<svg xmlns="http://www.w3.org/2000/svg" width="109.923" height="110" viewBox="0 0 109.923 110">
  <g id="public2" transform="translate(-0.177)">
    <g id="Group_125164" data-name="Group 125164" transform="translate(0.177 0)">
      <path id="Path_129871" data-name="Path 129871" d="M157.14,405.755v-8.168a2.148,2.148,0,1,0-4.3,0v8.168c-8.186,2.594-6.539,14.542,2.149,14.726C163.681,420.3,165.325,408.348,157.14,405.755Zm-2.148,10.43a3.223,3.223,0,1,1,3.223-3.223A3.226,3.226,0,0,1,154.992,416.185Z" transform="translate(-115.857 -310.482)" fill="#fff"/>
      <path id="Path_129872" data-name="Path 129872" d="M304.474,406.05v-8.087a2.148,2.148,0,0,0-4.3,0v8.087c-8.186,2.594-6.539,14.542,2.149,14.726C311.015,420.591,312.659,408.642,304.474,406.05Zm-2.148,10.43a3.223,3.223,0,1,1,3.223-3.223A3.226,3.226,0,0,1,302.326,416.479Z" transform="translate(-231.537 -310.776)" fill="#fff"/>
      <path id="Path_129873" data-name="Path 129873" d="M104.767,95.273V81.916a2.148,2.148,0,0,0-1.074-1.861L95.959,75.59V35.035a5.436,5.436,0,0,0-.034-.606l7.768-4.485a2.148,2.148,0,0,0,1.074-1.861V14.726C112.954,12.132,111.307.184,102.619,0c-8.689.185-10.333,12.133-2.148,14.726V26.843L93.792,30.7a5.4,5.4,0,0,0-3.26-1.091H73.114V14.726C81.3,12.132,79.653.184,70.965,0c-8.689.185-10.333,12.133-2.148,14.726V29.608H53.373l-1.156-3.452c-1.01-3.016-3.217-4.745-6.057-4.745h-4.7V14.726C49.646,12.132,48,.184,39.312,0c-8.689.185-10.333,12.133-2.148,14.726v6.685H27.921a5.433,5.433,0,0,0-5.427,5.427V38.5a2.17,2.17,0,0,0-.314-.22L9.807,31.14V14.726C17.993,12.132,16.346.184,7.658,0-1.031.185-2.675,12.133,5.51,14.726V32.38a2.148,2.148,0,0,0,1.074,1.861L20.031,42a2.151,2.151,0,0,0,2.462-.22v.845a2.148,2.148,0,0,0,4.3,0V26.838a1.145,1.145,0,0,1,1.131-1.13H46.16c.446,0,1.376,0,1.983,1.813l1.647,4.918a2.149,2.149,0,0,0,2.037,1.466H90.532a1.145,1.145,0,0,1,1.131,1.13V83.161a1.145,1.145,0,0,1-1.131,1.13H83.544a2.148,2.148,0,0,0,0,4.3h6.988a5.433,5.433,0,0,0,5.427-5.427V80.552l4.512,2.6V95.274c-8.186,2.594-6.539,14.542,2.149,14.726,8.689-.185,10.332-12.134,2.148-14.727ZM99.4,7.519a3.223,3.223,0,1,1,3.223,3.222A3.226,3.226,0,0,1,99.4,7.519Zm-31.654,0a3.223,3.223,0,1,1,3.223,3.222A3.226,3.226,0,0,1,67.743,7.519Zm-31.654,0a3.223,3.223,0,1,1,3.223,3.222A3.226,3.226,0,0,1,36.089,7.519Zm-31.654,0a3.223,3.223,0,1,1,3.223,3.222A3.226,3.226,0,0,1,4.436,7.519ZM102.619,105.7a3.223,3.223,0,1,1,3.223-3.223A3.226,3.226,0,0,1,102.619,105.7Z" transform="translate(-0.177 0)" fill="#fff"/>
      <path id="Path_129874" data-name="Path 129874" d="M19.253,317.526,6.584,324.84A2.148,2.148,0,0,0,5.51,326.7v17.654c-8.186,2.595-6.539,14.542,2.149,14.726,8.689-.185,10.333-12.133,2.148-14.726V327.941L21.4,321.247a2.148,2.148,0,0,0-2.148-3.721Zm-8.372,34.036a3.223,3.223,0,1,1-3.223-3.223A3.226,3.226,0,0,1,10.881,351.562Z" transform="translate(-0.177 -249.082)" fill="#fff"/>
    </g>
    <path id="Path_129875" data-name="Path 129875" d="M140.816,187.082H79.28A3.29,3.29,0,0,0,76,190.361V232.2a3.288,3.288,0,0,0,3.279,3.279h68.094A3.288,3.288,0,0,1,144.1,232.2V190.361A3.29,3.29,0,0,0,140.816,187.082Z" transform="translate(-59.534 -146.889)" fill="#335d81" fill-rule="evenodd"/>
    <path id="Path_129876" data-name="Path 129876" d="M198.109,236.381H183.069V231.01a4.3,4.3,0,0,1,8.594,0,2.148,2.148,0,0,0,4.3,0c-.432-11.386-16.758-11.381-17.188,0v5.371h-2.148a2.149,2.149,0,0,0-2.148,2.148V251.42a2.149,2.149,0,0,0,2.148,2.148h21.484a2.149,2.149,0,0,0,2.148-2.148V238.53A2.148,2.148,0,0,0,198.109,236.381Zm-2.148,12.891H178.773v-8.594H195.96Z" transform="translate(-136.852 -174.676)" fill="#fff"/>
  </g>
</svg>
