<svg xmlns="http://www.w3.org/2000/svg" width="91.936" height="92" viewBox="0 0 91.936 92">
  <g id="public" transform="translate(-0.177)">
    <g id="Group_125164" data-name="Group 125164" transform="translate(0.177 0)">
      <path id="Path_129871" data-name="Path 129871" d="M155.564,404.067v-6.831a1.8,1.8,0,1,0-3.594,0v6.831a6.289,6.289,0,1,0,3.594,0Zm-1.8,8.723a2.7,2.7,0,1,1,2.7-2.7A2.7,2.7,0,0,1,153.768,412.79Z" transform="translate(-121.037 -324.384)" fill="#003462"/>
      <path id="Path_129872" data-name="Path 129872" d="M302.9,404.375v-6.764a1.8,1.8,0,0,0-3.594,0v6.764a6.289,6.289,0,1,0,3.594,0Zm-1.8,8.723a2.7,2.7,0,1,1,2.7-2.7A2.7,2.7,0,0,1,301.1,413.1Z" transform="translate(-241.897 -324.692)" fill="#003462"/>
      <path id="Path_129873" data-name="Path 129873" d="M87.653,79.683V68.512a1.8,1.8,0,0,0-.9-1.556l-6.469-3.735V29.3a4.548,4.548,0,0,0-.028-.507l6.5-3.751a1.8,1.8,0,0,0,.9-1.556V12.316a6.289,6.289,0,1,0-3.594,0V22.451l-5.586,3.225a4.516,4.516,0,0,0-2.727-.912H61.179V12.316a6.289,6.289,0,1,0-3.594,0V24.763H44.668L43.7,21.876a5.256,5.256,0,0,0-5.066-3.969H34.7V12.316a6.289,6.289,0,1,0-3.594,0v5.591h-7.73a4.544,4.544,0,0,0-4.539,4.539V32.2a1.815,1.815,0,0,0-.263-.184L8.231,26.044V12.316A6.3,6.3,0,0,0,6.434,0a6.3,6.3,0,0,0-1.8,12.316V27.082a1.8,1.8,0,0,0,.9,1.556l11.247,6.493a1.8,1.8,0,0,0,2.059-.184v.707a1.8,1.8,0,0,0,3.594,0V22.447a.958.958,0,0,1,.946-.945H38.635c.373,0,1.151,0,1.658,1.516l1.377,4.114a1.8,1.8,0,0,0,1.7,1.226H75.746a.958.958,0,0,1,.946.945V69.553a.958.958,0,0,1-.946.946H69.9a1.8,1.8,0,0,0,0,3.594h5.845a4.544,4.544,0,0,0,4.539-4.539V67.371l3.774,2.179V79.683a6.289,6.289,0,1,0,3.593,0ZM83.16,6.289a2.7,2.7,0,1,1,2.7,2.7A2.7,2.7,0,0,1,83.16,6.289Zm-26.474,0a2.7,2.7,0,1,1,2.7,2.7A2.7,2.7,0,0,1,56.687,6.289Zm-26.474,0a2.7,2.7,0,1,1,2.7,2.7A2.7,2.7,0,0,1,30.213,6.289Zm-26.474,0a2.7,2.7,0,1,1,2.7,2.7A2.7,2.7,0,0,1,3.739,6.289ZM85.856,88.406a2.7,2.7,0,1,1,2.7-2.7A2.7,2.7,0,0,1,85.856,88.406Z" transform="translate(-0.177 0)" fill="#003462"/>
      <path id="Path_129874" data-name="Path 129874" d="M16.132,317.479,5.536,323.6a1.8,1.8,0,0,0-.9,1.556v14.765a6.3,6.3,0,0,0,1.8,12.317,6.3,6.3,0,0,0,1.8-12.317V326.19l9.7-5.6a1.8,1.8,0,1,0-1.8-3.112Zm-7,28.466a2.7,2.7,0,1,1-2.7-2.7A2.7,2.7,0,0,1,9.129,345.945Z" transform="translate(-0.177 -260.234)" fill="#003462"/>
    </g>
    <path id="Path_129875" data-name="Path 129875" d="M130.21,187.082H78.743A2.751,2.751,0,0,0,76,189.824v34.991a2.75,2.75,0,0,0,2.742,2.742h56.952a2.75,2.75,0,0,1-2.742-2.742V189.824A2.752,2.752,0,0,0,130.21,187.082Z" transform="translate(-62.199 -153.466)" fill="#d1e0f1" fill-rule="evenodd"/>
    <path id="Path_129876" data-name="Path 129876" d="M194.242,234.105H181.663v-4.492a3.594,3.594,0,0,1,7.188,0,1.8,1.8,0,0,0,3.594,0c-.362-9.522-14.015-9.519-14.375,0v4.492h-1.8a1.8,1.8,0,0,0-1.8,1.8v10.781a1.8,1.8,0,0,0,1.8,1.8h17.969a1.8,1.8,0,0,0,1.8-1.8V235.9A1.8,1.8,0,0,0,194.242,234.105Zm-1.8,10.781H178.07V237.7h14.375Z" transform="translate(-142.98 -182.497)" fill="#4789c8"/>
  </g>
</svg>
