<svg xmlns="http://www.w3.org/2000/svg" width="40.88" height="66.709" viewBox="0 0 40.88 66.709">
  <g id="serv3" transform="translate(-337.156 -704.404)">
    <g id="Group_794" data-name="Group 794" transform="translate(337.156 704.404)">
      <g id="Group_772" data-name="Group 772" transform="translate(0 0)">
        <g id="Group_771" data-name="Group 771" transform="translate(0 45.542)">
          <path id="Path_400" data-name="Path 400" d="M237.611,103.347a39.994,39.994,0,0,0-25.6-14.018s11.785-2.768,27.142,12.231c0,0,2.724-2.765,5.089-1.207.314.313-1.118.849-2.052,2.19s-1.16,1.607.489,2.767c1.432.984,1.187.984,1.99.893a2.181,2.181,0,0,1,2.61,1.161,2.119,2.119,0,0,1-1.743,2.9c-1.274.248-2.746-1.139-3.39-1.9a14.891,14.891,0,0,0-2.636-2.455c-.244,0-1.027.692-1.607.893s-1.76.178-1.961-.871S237.611,103.347,237.611,103.347Z" transform="translate(-212.015 -89.128)" fill="#4789c8"/>
          <path id="Path_401" data-name="Path 401" d="M226.24,103.347a39.994,39.994,0,0,1,25.6-14.018s-11.787-2.768-27.144,12.231c0,0-2.724-2.765-5.09-1.207-.312.313,1.118.849,2.054,2.19s1.162,1.607-.489,2.767c-1.428.984-1.183.984-1.985.893a2.185,2.185,0,0,0-2.614,1.161,2.119,2.119,0,0,0,1.743,2.9c1.273.248,2.746-1.139,3.391-1.9a14.844,14.844,0,0,1,2.635-2.455c.247,0,1.027.692,1.607.893s1.764.178,1.966-.871S226.24,103.347,226.24,103.347Z" transform="translate(-210.956 -89.128)" fill="#4789c8"/>
        </g>
        <path id="Path_402" data-name="Path 402" d="M245.243,69.4a6.526,6.526,0,0,0-2.116-2.054l.528-.4a4.757,4.757,0,0,0-2.54-1.311l1.187-.444a7.6,7.6,0,0,0-4.547-1.057l-.065-.614-.933-.233a10.164,10.164,0,0,1,2.92-.083v-.446a5.448,5.448,0,0,1,2.076.4l-.022-.489s1.925.464,2.325,1.037V63.2s2.69.041,3.875.93a5.857,5.857,0,0,0-2.285-2.033l.4-.507a6.22,6.22,0,0,0-3.213-.485l.448-.87a8.452,8.452,0,0,0-3.115.3l.11-.7a15.615,15.615,0,0,0-4.169.973l.1-.573-.782.022a6.849,6.849,0,0,1,2.625-1.44l-.129-.275a8.76,8.76,0,0,1,2.457-.489l-.234-.444a9.145,9.145,0,0,1,2.641,0l-.21-.444a7.082,7.082,0,0,1,2.348-.593A6.468,6.468,0,0,0,242.639,56l.21-.362a9.139,9.139,0,0,0-3.047.425l-.129-.571a11.97,11.97,0,0,0-2.305,1.187l-.1-.678a8.714,8.714,0,0,0-2.244,2.114l-.593-.275s-1.333.7-1.565,1.333c0,0-.21-.214.571-1.187s1.017-1.059,1.017-1.059l-.158-.539s1.078-.7,1.553-.92l-.194-.252a5.613,5.613,0,0,1,1.875-.828l-.161-.349a3.442,3.442,0,0,1,1.937-1.431,3.482,3.482,0,0,0-2.173.21l-.016-.332s-1.7.332-2.14,1.207l-.272-.381a5.2,5.2,0,0,0-1.458,1.629l-.46-.4a5.952,5.952,0,0,0-1.142,2.218,5.927,5.927,0,0,0-1.14-2.218l-.461.4a5.169,5.169,0,0,0-1.459-1.62l-.268.381c-.445-.875-2.143-1.207-2.143-1.207l-.015.332a3.511,3.511,0,0,0-2.174-.21,3.432,3.432,0,0,1,1.934,1.431l-.158.349a5.6,5.6,0,0,1,1.873.828l-.19.252c.475.224,1.553.92,1.553.92l-.159.539s.234.085,1.017,1.059.571,1.187.571,1.187c-.233-.636-1.566-1.333-1.566-1.333l-.592.275a8.763,8.763,0,0,0-2.241-2.114l-.108.678a11.863,11.863,0,0,0-2.305-1.187l-.126.571a9.143,9.143,0,0,0-3.046-.425l.21.362a6.477,6.477,0,0,0-2.285.571,7.1,7.1,0,0,1,2.349.593l-.21.444a9.161,9.161,0,0,1,2.644,0l-.233.444a8.767,8.767,0,0,1,2.454.489l-.126.275a6.865,6.865,0,0,1,2.622,1.44l-.782-.022.1.573a15.591,15.591,0,0,0-4.169-.981l.1.7a8.409,8.409,0,0,0-3.109-.3l.444.87a6.232,6.232,0,0,0-3.213.485l.4.507a5.838,5.838,0,0,0-2.283,2.033c1.183-.889,3.872-.93,3.872-.93V63.7c.4-.573,2.325-1.037,2.325-1.037l-.02.489a5.423,5.423,0,0,1,2.072-.4V63.2a10.159,10.159,0,0,1,2.921.083l-.933.233-.064.614a7.593,7.593,0,0,0-4.547,1.057l1.187.444a4.764,4.764,0,0,0-2.54,1.311l.528.4A6.519,6.519,0,0,0,218.05,69.4l.678.168a5.623,5.623,0,0,0-.8,2.369,3.945,3.945,0,0,1,2.137-1.458l.3.419a4.725,4.725,0,0,1,1.5-2.454l.678.126a4.54,4.54,0,0,1,1.164-1.289l.317.275a2.119,2.119,0,0,1,2.39-.529,5.491,5.491,0,0,0-2.941,1.693l.908.317a4.853,4.853,0,0,0-2.072,2.14l.489.423a5.249,5.249,0,0,0-.931,2.515l.489.127a6.308,6.308,0,0,0,.065,2.455,5.4,5.4,0,0,1,1.162-2.2l.74.252a6.394,6.394,0,0,1-.064-1.735l.507.169c-.043-.337-.043-1.078-.043-1.078l.657-.021a2.286,2.286,0,0,1,1.187-1.862,4.325,4.325,0,0,0-.888,1.82l.59.168a5.02,5.02,0,0,0-.548,2.265l.444-.041a11.745,11.745,0,0,0,.1,2.771l.572-.3a6.114,6.114,0,0,0,1.4,2.159,6.287,6.287,0,0,1-.147-2.562l.549.17a7.453,7.453,0,0,1-.419-2.369l.419.128a5.93,5.93,0,0,1,.148-2.687l.466.252a8.7,8.7,0,0,1,.317-2.221h.634a.8.8,0,0,1,.741-.845L230.2,96.441c-2.6,1.333-2.886,2.508-2.886,2.508h8.662s-.279-1.175-2.885-2.508l-.731-27.512a.8.8,0,0,1,.74.845h.635A8.763,8.763,0,0,1,234.049,72l.465-.252a5.908,5.908,0,0,1,.15,2.687l.419-.128a7.551,7.551,0,0,1-.419,2.369l.548-.17a6.282,6.282,0,0,1-.145,2.562,6.153,6.153,0,0,0,1.4-2.159l.571.3a11.747,11.747,0,0,0,.1-2.771l.442.041a5.053,5.053,0,0,0-.547-2.265l.593-.168a4.331,4.331,0,0,0-.889-1.82,2.283,2.283,0,0,1,1.182,1.862l.655.021s0,.741-.041,1.078l.507-.169a6.45,6.45,0,0,1-.059,1.735l.737-.252a5.421,5.421,0,0,1,1.166,2.2,6.346,6.346,0,0,0,.064-2.455l.485-.127A5.228,5.228,0,0,0,240.5,71.6l.489-.423a4.855,4.855,0,0,0-2.071-2.14l.908-.317a5.473,5.473,0,0,0-2.942-1.693,2.124,2.124,0,0,1,2.394.529l.313-.275a4.471,4.471,0,0,1,1.162,1.289l.68-.126a4.733,4.733,0,0,1,1.5,2.454l.295-.419a3.954,3.954,0,0,1,2.138,1.458,5.639,5.639,0,0,0-.8-2.369Z" transform="translate(-211.203 -52.486)" fill="#003462"/>
      </g>
    </g>
  </g>
</svg>
