<svg xmlns="http://www.w3.org/2000/svg" width="81.446" height="59.799" viewBox="0 0 81.446 59.799">
  <g id="serv4" transform="translate(-327.574 -763.476)">
    <g id="Group_795" data-name="Group 795" transform="translate(327.574 763.476)">
      <g id="Group_773" data-name="Group 773" transform="translate(0)">
        <path id="Path_403" data-name="Path 403" d="M401.065,231.988a1.193,1.193,0,1,0,1.067-2.135c-2.772-1.385-7.969-1.4-8.189-1.4a1.193,1.193,0,1,0,0,2.386C395.285,230.837,399.179,231.044,401.065,231.988Z" transform="translate(-330.268 -202.935)" fill="#4789c8"/>
        <path id="Path_404" data-name="Path 404" d="M77.813,111.976l-4.928-1.413a.5.5,0,0,1-.361-.479v-1.649a8.967,8.967,0,0,0,1.141-.936,8.777,8.777,0,0,0,2.686-6.35V98.88l.477-.953a7.615,7.615,0,0,0,.8-3.387V88.4A1.193,1.193,0,0,0,76.434,87.2H64.952a7.581,7.581,0,0,0-7.572,7.572v.071a6.329,6.329,0,0,0,.665,2.816l.611,1.222v1.949a9.31,9.31,0,0,0,3.828,7.528v1.727c0,.266,0,.376-.985.658l-2.4.687-6.955-2.529a1.192,1.192,0,0,0-.327-.918l-2.222-2.335v-3.92c.236-.194.466-.393.691-.6a14,14,0,0,0,4.412-10.18V87.818a13.792,13.792,0,0,0,1.28-5.8V69.261a1.193,1.193,0,0,0-1.193-1.193H36.915a11.413,11.413,0,0,0-11.4,11.4v2.551a13.792,13.792,0,0,0,1.276,5.8v2.693a14.579,14.579,0,0,0,5.1,11.128v4.012l-2.218,2.336a1.192,1.192,0,0,0-.325.914l-7.342,2.669a6.258,6.258,0,0,0-1.475.773l-1.152-.576a9.107,9.107,0,0,0,4.571-3.7,1.192,1.192,0,0,0,0-1.067c-.864-1.721-.965-4.873-1.048-7.408-.027-.843-.054-1.641-.1-2.35-.407-5.723-4.757-10.039-10.121-10.039S2.964,91.524,2.558,97.245c-.05.707-.079,1.506-.1,2.35-.084,2.533-.188,5.687-1.048,7.407a1.193,1.193,0,0,0,0,1.067c.052.1,1.137,2.2,4.575,3.7l-3.205,1.6A4.994,4.994,0,0,0,0,117.857v8.815a1.193,1.193,0,1,0,2.386,0v-8.815A2.62,2.62,0,0,1,3.843,115.5l3.987-1.994,1.387,1.318a5.018,5.018,0,0,0,6.917,0l1.387-1.318,1.3.65a6.28,6.28,0,0,0-.959,3.332v9.185a1.193,1.193,0,1,0,2.386,0v-9.185a3.925,3.925,0,0,1,2.574-3.675L30.563,111l3.219,4.833a2.459,2.459,0,0,0,1.811,1.087,2.286,2.286,0,0,0,.246.012,2.46,2.46,0,0,0,1.744-.723l1.963-1.963v12.425a1.193,1.193,0,0,0,2.386,0V114.243l1.963,1.963a2.458,2.458,0,0,0,1.744.723q.122,0,.246-.012a2.46,2.46,0,0,0,1.811-1.087L50.913,111l7.74,2.814a3.925,3.925,0,0,1,2.574,3.675v9.185a1.193,1.193,0,1,0,2.386,0v-9.185a6.308,6.308,0,0,0-1.765-4.366l.3-.084a6.543,6.543,0,0,0,1.11-.4l3.047,3.047v10.99a1.193,1.193,0,0,0,2.386,0v-10.99l3.025-3.025a2.838,2.838,0,0,0,.508.2l4.928,1.408a2.646,2.646,0,0,1,1.911,2.533v9.872a1.193,1.193,0,1,0,2.386,0V116.8A5.042,5.042,0,0,0,77.813,111.976Zm-60.118-2.1v-1.429a8.826,8.826,0,0,0,3.15-3.89,13.136,13.136,0,0,0,.679,2.85A8.62,8.62,0,0,1,17.7,109.87ZM4.935,97.413A8.858,8.858,0,0,1,7.347,91.85,7.414,7.414,0,0,1,18,91.85a8.858,8.858,0,0,1,2.412,5.563c.047.665.073,1.439.1,2.259l.007.213a10.721,10.721,0,0,0-5.893-4.307,14.973,14.973,0,0,0-4.538-.719,1.193,1.193,0,0,0-.826.364L7.112,97.457A1.193,1.193,0,1,0,8.83,99.113l1.791-1.857c1.543.079,6.506.652,8.436,4.9a6.461,6.461,0,0,1-12.844-1,1.186,1.186,0,0,0-1.389-1.178c0-.1.007-.206.01-.307C4.862,98.853,4.888,98.081,4.935,97.413Zm-1.109,9.994a13.152,13.152,0,0,0,.68-2.857,8.9,8.9,0,0,0,3.15,3.885v1.43a8.578,8.578,0,0,1-3.829-2.458Zm7.035,5.688-1.11-1.054a2.469,2.469,0,0,0,.29-1.165V109.6a8.871,8.871,0,0,0,5.268,0v1.273a2.469,2.469,0,0,0,.29,1.166L14.491,113.1a2.633,2.633,0,0,1-3.63,0ZM29.178,90.513v-2.96a1.193,1.193,0,0,0-.119-.519A11.445,11.445,0,0,1,27.9,82.019V79.468a9.023,9.023,0,0,1,9.013-9.014H53.583V82.019a11.444,11.444,0,0,1-1.157,5.013,1.193,1.193,0,0,0-.119.52v3.4a11.455,11.455,0,0,1-3.657,8.439,11.878,11.878,0,0,1-.916.776l-.02.015a11.473,11.473,0,0,1-7.743,2.31A11.817,11.817,0,0,1,29.178,90.513Zm10.638,14.358q.471.031.942.031a13.821,13.821,0,0,0,6.449-1.58V105.5l-6.464,4.416L34.281,105.5v-2.227a13.435,13.435,0,0,0,5.534,1.6Zm-3.92,9.65a.083.083,0,0,1-.127-.013l-3.711-5.567,1.194-1.256,5.629,3.847Zm9.82-.013a.079.079,0,0,1-.06.036.074.074,0,0,1-.067-.024l-2.983-2.983,5.629-3.847,1.194,1.256Zm15.326-13.674V98.6a1.192,1.192,0,0,0-.126-.534L60.179,96.6a3.931,3.931,0,0,1-.413-1.748v-.071a5.191,5.191,0,0,1,5.186-5.186H75.241v4.957a5.214,5.214,0,0,1-.55,2.319l-.6,1.205a1.193,1.193,0,0,0-.126.534v2.551a6.462,6.462,0,0,1-6.661,6.458,6.679,6.679,0,0,1-6.26-6.781ZM67.232,110c.092,0,.183,0,.275,0a8.863,8.863,0,0,0,2.631-.4v.48a2.852,2.852,0,0,0,.086.7L67.5,113.5,64.8,110.794a3.274,3.274,0,0,0,.074-.707v-.5a8.366,8.366,0,0,0,2.363.415Z" transform="translate(0 -68.068)" fill="#003462"/>
        <path id="Path_405" data-name="Path 405" d="M466.116,380.816a1.193,1.193,0,0,0-1.193,1.193v7.655a1.193,1.193,0,0,0,2.387,0v-7.655A1.193,1.193,0,0,0,466.116,380.816Z" transform="translate(-390.958 -331.06)" fill="#4789c8"/>
        <path id="Path_406" data-name="Path 406" d="M33.273,390.73a1.193,1.193,0,0,0-1.193,1.193V398a1.193,1.193,0,1,0,2.386,0v-6.078A1.193,1.193,0,0,0,33.273,390.73Z" transform="translate(-26.974 -339.397)" fill="#4789c8"/>
        <path id="Path_407" data-name="Path 407" d="M194.845,139.119a.078.078,0,0,1,.062-.079,37.7,37.7,0,0,1,7.751-.378c3.721.248,6.416,1.182,8.007,2.776a1.193,1.193,0,0,0,1.687-1.687c-4.513-4.513-13.955-3.65-17.805-3.069a2.449,2.449,0,0,0-2.093,2.441v2.748a1.193,1.193,0,0,0,2.386,0v-2.748Z" transform="translate(-161.841 -125.365)" fill="#4789c8"/>
        <path id="Path_408" data-name="Path 408" d="M161.573,396.855a1.193,1.193,0,0,0-1.193,1.193v5.1a1.193,1.193,0,0,0,2.386,0v-5.1a1.193,1.193,0,0,0-1.193-1.193Z" transform="translate(-134.867 -344.548)" fill="#4789c8"/>
        <path id="Path_409" data-name="Path 409" d="M338,396.855a1.193,1.193,0,0,0-1.193,1.193v5.1a1.193,1.193,0,1,0,2.386,0v-5.1A1.193,1.193,0,0,0,338,396.855Z" transform="translate(-283.223 -344.548)" fill="#4789c8"/>
      </g>
    </g>
  </g>
</svg>
