<svg xmlns="http://www.w3.org/2000/svg" width="72.699" height="65.675" viewBox="0 0 72.699 65.675">
  <g id="serv2" transform="translate(-1045.803 -1335.663)">
    <rect id="Rectangle_14154" data-name="Rectangle 14154" width="30" height="63" transform="translate(1067 1337)" fill="#4789c8" opacity="0.2"/>
    <path id="Path_124899" data-name="Path 124899" d="M751.829,701.694h-1.914V666.106a1.641,1.641,0,0,0-.488-1.159l-11.229-11.3a1.262,1.262,0,0,0-1.794-.044,1.28,1.28,0,0,0-.393.906v47.189h-3.318V644.543a.893.893,0,0,0-.889-.9h-27.87a.893.893,0,0,0-.884.9v57.151h-3.317V654.505a1.274,1.274,0,0,0-1.255-1.294,1.256,1.256,0,0,0-.94.4l-11.229,11.3a1.64,1.64,0,0,0-.476,1.157v35.618H683.92a.9.9,0,0,0-.9.9v2.824a.9.9,0,0,0,.9.9h67.909a.894.894,0,0,0,.891-.9V702.61a.9.9,0,0,0-.891-.915Z" transform="translate(364.281 693.518)" fill="none" stroke="#003462" stroke-linejoin="round" stroke-width="3" fill-rule="evenodd"/>
    <g id="Path_124900" data-name="Path 124900" transform="translate(364.281 693.518)" fill="none" stroke-linejoin="round" fill-rule="evenodd">
      <path d="M712.262,697.794a.889.889,0,0,1-.884.891h-2.8a.889.889,0,0,1-.884-.891h0v-2.824a.891.891,0,0,1,.876-.9h2.827a.884.884,0,0,1,.869.9h0v2.82Zm0-7.609a.886.886,0,0,1-.884.888h-2.8a.886.886,0,0,1-.884-.889h0v-2.827a.886.886,0,0,1,.884-.889h2.8a.886.886,0,0,1,.884.889h0v2.827Zm0-7.609a.883.883,0,0,1-.869.9H708.6a.886.886,0,0,1-.884-.891v-2.824a.886.886,0,0,1,.884-.891h2.8a.886.886,0,0,1,.869.884v2.827Zm0-7.616a.886.886,0,0,1-.884.889h-2.8a.886.886,0,0,1-.884-.889v-2.79a.886.886,0,0,1,.884-.891h2.8a.886.886,0,0,1,.884.891v2.79Zm0-7.609a.886.886,0,0,1-.884.889h-2.8a.886.886,0,0,1-.884-.889v-2.822a.886.886,0,0,1,.884-.894h2.8a.886.886,0,0,1,.884.893v2.824Zm0-7.611a.886.886,0,0,1-.884.891h-2.8a.886.886,0,0,1-.884-.891v-2.824a.886.886,0,0,1,.884-.891h2.8a.886.886,0,0,1,.884.883v2.832Zm0-7.609a.886.886,0,0,1-.884.889h-2.8a.886.886,0,0,1-.884-.889V649.3a.888.888,0,0,1,.884-.891h2.8a.889.889,0,0,1,.884.886v2.832Zm7.9,45.663a.889.889,0,0,1-.884.891h-2.8a.889.889,0,0,1-.884-.891h0v-2.824a.889.889,0,0,1,.876-.9h2.812a.886.886,0,0,1,.884.891h0v2.832Zm0-7.609a.886.886,0,0,1-.884.888h-2.8a.886.886,0,0,1-.884-.889h0v-2.827a.886.886,0,0,1,.884-.889h2.8a.886.886,0,0,1,.884.889h0Zm0-7.609a.883.883,0,0,1-.876.9H716.47a.886.886,0,0,1-.884-.891v-2.824a.884.884,0,0,1,.869-.9h2.82a.889.889,0,0,1,.884.891v2.834Zm0-7.616a.886.886,0,0,1-.884.889h-2.8a.886.886,0,0,1-.884-.889v-2.79a.889.889,0,0,1,.847-.928h2.841a.886.886,0,0,1,.884.891Zm0-7.609a.886.886,0,0,1-.884.881h-2.8a.886.886,0,0,1-.884-.889v-2.815a.888.888,0,0,1,.884-.894h2.8a.888.888,0,0,1,.884.893v2.832Zm0-7.611a.889.889,0,0,1-.884.886h-2.8a.889.889,0,0,1-.884-.894v-2.824a.886.886,0,0,1,.884-.891h2.8a.886.886,0,0,1,.884.891v2.832Zm0-7.609a.886.886,0,0,1-.884.876h-2.8a.886.886,0,0,1-.884-.891v-2.824a.886.886,0,0,1,.884-.891h2.8a.886.886,0,0,1,.884.891v2.839Zm7.882,45.663a.889.889,0,0,1-.884.891h-2.8a.886.886,0,0,1-.869-.891v-2.824a.886.886,0,0,1,.869-.9h2.8a.886.886,0,0,1,.884.891h0v2.832Zm0-7.609a.886.886,0,0,1-.884.888h-2.8a.884.884,0,0,1-.869-.9v-2.827a.886.886,0,0,1,.884-.889h2.8a.884.884,0,0,1,.869.9Zm0-7.609a.883.883,0,0,1-.876.9h-2.812a.883.883,0,0,1-.869-.9h0v-2.827a.888.888,0,0,1,.884-.891h2.8a.888.888,0,0,1,.884.891Zm0-7.616a.886.886,0,0,1-.884.889h-2.8a.883.883,0,0,1-.869-.9v-2.783a.886.886,0,0,1,.884-.891h2.8a.886.886,0,0,1,.869.891Zm0-7.609a.886.886,0,0,1-.884.889h-2.8a.883.883,0,0,1-.869-.9v-2.815a.888.888,0,0,1,.884-.894h2.8a.888.888,0,0,1,.884.893Zm0-7.611a.886.886,0,0,1-.884.891h-2.8a.884.884,0,0,1-.869-.9h0V656.9a.888.888,0,0,1,.884-.891h2.8a.888.888,0,0,1,.869.9v2.832Zm0-7.609a.886.886,0,0,1-.884.889h-2.8a.881.881,0,0,1-.869-.9h0v-2.824a.886.886,0,0,1,.884-.891h2.8a.886.886,0,0,1,.884.891Z" stroke="none"/>
      <path d="M 727.1571044921875 698.6847534179688 L 724.3524169921875 698.6846923828125 C 723.86767578125 698.67529296875 723.4803466796875 698.2783203125 723.4830322265625 697.793701171875 L 723.4832763671875 694.96923828125 C 723.476318359375 694.4815673828125 723.8646240234375 694.0800170898438 724.3524169921875 694.0707397460938 L 727.1522216796875 694.0709228515625 C 727.3876342773438 694.0713500976562 727.6131591796875 694.1656494140625 727.7789916992188 694.3328857421875 C 727.94482421875 694.5 728.0372314453125 694.7263793945312 728.0359497070312 694.9617919921875 L 728.0359497070312 697.7935180664062 L 728.0408325195312 697.793701171875 C 728.0421752929688 698.283447265625 727.6468505859375 698.68212890625 727.1571044921875 698.6847534179688 Z M 719.2745971679688 698.6847534179688 L 716.469970703125 698.6846923828125 C 715.9801635742188 698.68212890625 715.5848388671875 698.2835083007812 715.5861206054688 697.793701171875 L 715.5863647460938 697.793701171875 L 715.5863647460938 694.96923828125 C 715.5809936523438 694.4794921875 715.9729614257812 694.0778198242188 716.4625854492188 694.071044921875 L 719.2748413085938 694.0709228515625 C 719.51025390625 694.0713500976562 719.73583984375 694.1656494140625 719.9016723632812 694.3328857421875 C 720.0674438476562 694.5 720.1597900390625 694.7263793945312 720.158447265625 694.9617919921875 L 720.158447265625 697.793701171875 C 720.1597900390625 698.2835083007812 719.7645263671875 698.68212890625 719.2745971679688 698.6847534179688 Z M 711.377685546875 698.6847534179688 L 708.5755004882812 698.6846923828125 C 708.0855102539062 698.68212890625 707.6903076171875 698.283447265625 707.691650390625 697.793701171875 L 707.6917114257812 697.793701171875 L 707.6917114257812 694.96923828125 C 707.6878051757812 694.4800415039062 708.0789794921875 694.0789184570312 708.5681762695312 694.0709228515625 L 711.3949584960938 694.0709228515625 C 711.63037109375 694.074951171875 711.8543090820312 694.1724243164062 712.0175170898438 694.3419799804688 C 712.1806030273438 694.511474609375 712.2694091796875 694.7390747070312 712.2642822265625 694.9742431640625 L 712.2640380859375 694.97412109375 L 712.2640380859375 697.793701171875 L 712.2615356445312 697.793701171875 C 712.2627563476562 698.283447265625 711.867431640625 698.68212890625 711.377685546875 698.6847534179688 Z M 724.3524169921875 691.0733032226562 C 723.8654174804688 691.0653076171875 723.4767456054688 690.66455078125 723.4835815429688 690.1774291992188 L 723.4832763671875 687.3505249023438 C 723.4817504882812 686.8610229492188 723.8775024414062 686.4630737304688 724.366943359375 686.4618530273438 L 727.1717529296875 686.4619750976562 C 727.6587524414062 686.4700317382812 728.0475463867188 686.870849609375 728.0406494140625 687.3578491210938 L 728.0408325195312 690.1847534179688 C 728.0421752929688 690.6740112304688 727.6464233398438 691.0718994140625 727.1571044921875 691.0731811523438 L 724.3524169921875 691.0733032226562 Z M 716.469970703125 691.0733032226562 C 715.9804077148438 691.0719604492188 715.584716796875 690.6740112304688 715.5861206054688 690.1845092773438 L 715.5863647460938 690.1847534179688 L 715.5863647460938 687.3578491210938 C 715.584716796875 686.8684692382812 715.9804077148438 686.4705200195312 716.4699096679688 686.4692993164062 L 719.2748413085938 686.4692993164062 C 719.7642211914062 686.4705200195312 720.1599731445312 686.8684692382812 720.158447265625 687.3578491210938 L 720.158447265625 690.1847534179688 C 720.1599731445312 690.6740112304688 719.7642211914062 691.0719604492188 719.2748413085938 691.0731811523438 L 716.469970703125 691.0733032226562 Z M 708.5755004882812 691.0733032226562 C 708.0859985351562 691.0718994140625 707.6903076171875 690.6740112304688 707.6917114257812 690.1845092773438 L 707.6917114257812 690.1847534179688 L 707.6917114257812 687.3578491210938 C 707.6903076171875 686.8685302734375 708.0858764648438 686.4705810546875 708.5752563476562 686.4692993164062 L 711.3801879882812 686.4692993164062 C 711.8696899414062 686.4705810546875 712.2652587890625 686.8685302734375 712.2637329101562 687.3578491210938 L 712.2639770507812 687.3578491210938 L 712.2615356445312 690.1847534179688 C 712.2628784179688 690.6740112304688 711.8671875 691.0718994140625 711.3779296875 691.0731811523438 L 708.5755004882812 691.0733032226562 Z M 727.16455078125 683.4716186523438 L 724.3524169921875 683.4716186523438 C 724.1171875 683.4679565429688 723.8931274414062 683.370361328125 723.7299194335938 683.2008666992188 C 723.5668334960938 683.0314331054688 723.47802734375 682.8037719726562 723.4832763671875 682.5684814453125 L 723.4832763671875 679.7416381835938 C 723.4817504882812 679.251708984375 723.8770751953125 678.85302734375 724.3668212890625 678.8504028320312 L 727.1717529296875 678.8507080078125 C 727.6614990234375 678.85302734375 728.0567016601562 679.251708984375 728.055419921875 679.741455078125 L 728.0408325195312 682.5757446289062 C 728.0441284179688 682.8110961914062 727.9534912109375 683.037841796875 727.7890625 683.2061157226562 C 727.6245727539062 683.3740844726562 727.3997192382812 683.4697875976562 727.16455078125 683.4716186523438 Z M 719.2822875976562 683.4716186523438 L 716.469970703125 683.4716186523438 C 716.2344970703125 683.4711303710938 716.0089111328125 683.3768310546875 715.8430786132812 683.2095947265625 C 715.6773681640625 683.0424194335938 715.5848388671875 682.8163452148438 715.5861206054688 682.5806884765625 L 715.5863647460938 679.7564086914062 C 715.5811157226562 679.5213012695312 715.669921875 679.293701171875 715.8330078125 679.1240234375 C 715.9962158203125 678.9544677734375 716.2201538085938 678.8570556640625 716.4553833007812 678.8532104492188 L 719.2749633789062 678.8532104492188 C 719.7646484375 678.8558349609375 720.1600952148438 679.2544555664062 720.1588134765625 679.7442016601562 L 720.1585693359375 682.5783081054688 L 720.158447265625 682.5757446289062 C 720.1617431640625 682.8110961914062 720.0711669921875 683.037841796875 719.9066772460938 683.2061157226562 C 719.7421264648438 683.3740844726562 719.517333984375 683.4697875976562 719.2822875976562 683.4716186523438 Z M 711.3924560546875 683.4716186523438 L 708.599853515625 683.4716186523438 C 708.3644409179688 683.4711303710938 708.1389770507812 683.3768310546875 707.9730224609375 683.2095947265625 C 707.8074340820312 683.0424194335938 707.7149047851562 682.8163452148438 707.7161865234375 682.5806884765625 L 707.7161865234375 679.7564086914062 C 707.7149047851562 679.5208129882812 707.8074340820312 679.294677734375 707.9730224609375 679.1275024414062 C 708.1389770507812 678.9602661132812 708.3644409179688 678.8660278320312 708.599853515625 678.865478515625 L 711.4046630859375 678.865478515625 C 711.8864135742188 678.8748779296875 712.2724609375 679.2672119140625 712.2735595703125 679.7490844726562 L 712.2738037109375 682.5759887695312 L 712.2615356445312 682.5757446289062 C 712.2684326171875 683.06298828125 711.879638671875 683.4638061523438 711.3924560546875 683.4716186523438 Z M 727.1571044921875 675.84814453125 L 724.3524169921875 675.84814453125 C 723.8654174804688 675.8402709960938 723.4767456054688 675.4395141601562 723.4835815429688 674.952392578125 L 723.4832763671875 672.16943359375 C 723.4819946289062 671.9337768554688 723.5742797851562 671.70751953125 723.7401123046875 671.540283203125 C 723.9059448242188 671.3731689453125 724.1315307617188 671.2788696289062 724.366943359375 671.2781982421875 L 727.1717529296875 671.2783203125 C 727.65625 671.28759765625 728.04345703125 671.6846923828125 728.0406494140625 672.16943359375 L 728.0408325195312 674.9595947265625 C 728.0421752929688 675.4488525390625 727.6466064453125 675.8468627929688 727.1571044921875 675.84814453125 Z M 719.2748413085938 675.84814453125 L 716.469970703125 675.84814453125 C 715.9804077148438 675.846923828125 715.584716796875 675.448974609375 715.5861206054688 674.9595947265625 L 715.5863647460938 672.16943359375 C 715.5642700195312 671.6793823242188 715.943359375 671.26416015625 716.4334106445312 671.2416381835938 L 719.2748413085938 671.2417602539062 C 719.51025390625 671.2423095703125 719.73583984375 671.336669921875 719.9016723632812 671.5037841796875 C 720.0672607421875 671.6709594726562 720.1597900390625 671.8971557617188 720.158447265625 672.1326904296875 L 720.158447265625 674.9595947265625 C 720.1599731445312 675.448974609375 719.7642211914062 675.846923828125 719.2748413085938 675.84814453125 Z M 711.3779296875 675.84814453125 L 708.5755004882812 675.84814453125 C 708.0858764648438 675.8468627929688 707.6903076171875 675.4488525390625 707.6917114257812 674.9595947265625 L 707.6917114257812 672.16943359375 C 707.6904296875 671.9337768554688 707.7828369140625 671.70751953125 707.9486694335938 671.540283203125 C 708.114501953125 671.3731689453125 708.33984375 671.2788696289062 708.5752563476562 671.2781982421875 L 711.3801879882812 671.2783203125 C 711.6156005859375 671.2788696289062 711.841064453125 671.3731689453125 712.0068969726562 671.540283203125 C 712.1727294921875 671.70751953125 712.26513671875 671.9337768554688 712.2637329101562 672.169189453125 L 712.2639770507812 674.9595947265625 L 712.2615356445312 674.9595947265625 C 712.2628784179688 675.4488525390625 711.8673095703125 675.8468627929688 711.3779296875 675.84814453125 Z M 727.1571044921875 668.2391967773438 L 724.3524169921875 668.2391967773438 C 723.8654174804688 668.231201171875 723.4767456054688 667.8305053710938 723.4835815429688 667.3433227539062 L 723.4832763671875 664.5286254882812 C 723.48046875 664.0379638671875 723.8759765625 663.6376953125 724.3668212890625 663.6350708007812 L 727.1717529296875 663.6351928710938 C 727.6625366210938 663.6376953125 728.05810546875 664.0379638671875 728.055419921875 664.528564453125 L 728.0408325195312 667.3506469726562 C 728.0421752929688 667.8400268554688 727.6464233398438 668.2378540039062 727.1571044921875 668.2391967773438 Z M 711.3779296875 668.2391967773438 L 708.5755004882812 668.2391967773438 C 708.0859985351562 668.2378540039062 707.6903076171875 667.8400268554688 707.6917114257812 667.3506469726562 L 707.6917114257812 664.5286254882812 C 707.6896362304688 664.2927856445312 707.781982421875 664.0657958984375 707.9478149414062 663.8980102539062 C 708.1135864257812 663.7304077148438 708.3394165039062 663.6356201171875 708.5752563476562 663.6350708007812 L 711.3801879882812 663.6351928710938 C 711.6161499023438 663.6356201171875 711.8419799804688 663.7304077148438 712.0078125 663.8980102539062 C 712.173583984375 664.0657958984375 712.2659301757812 664.2927856445312 712.2637329101562 664.5286254882812 L 712.2639770507812 667.35302734375 L 712.2615356445312 667.3506469726562 C 712.2628784179688 667.8400268554688 711.8671875 668.2378540039062 711.3779296875 668.2391967773438 Z M 716.469970703125 668.2319946289062 C 715.9804077148438 668.2305297851562 715.584716796875 667.8325805664062 715.5861206054688 667.3432006835938 L 715.5863647460938 664.5286254882812 C 715.58349609375 664.0377197265625 715.9791870117188 663.6376953125 716.469970703125 663.6350708007812 L 719.2748413085938 663.6351928710938 C 719.7654418945312 663.6376953125 720.1611938476562 664.0377197265625 720.158447265625 664.528564453125 L 720.158447265625 667.3603515625 L 720.158447265625 667.3506469726562 C 720.1558227539062 667.8370971679688 719.7613525390625 668.2305297851562 719.2748413085938 668.2317504882812 L 716.469970703125 668.2319946289062 Z M 727.1571044921875 660.6303100585938 L 724.3524169921875 660.6303100585938 C 724.1171875 660.626708984375 723.8931274414062 660.5291748046875 723.7299194335938 660.3594970703125 C 723.5668334960938 660.1900024414062 723.47802734375 659.9623413085938 723.4832763671875 659.7272338867188 L 723.4832763671875 656.9002075195312 C 723.4817504882812 656.4105224609375 723.8770751953125 656.0119018554688 724.3668212890625 656.00927734375 L 727.1717529296875 656.00927734375 C 727.6586303710938 656.0198974609375 728.0463256835938 656.4203491210938 728.0408325195312 656.907470703125 L 728.0408325195312 659.7393798828125 C 728.0419311523438 659.9746704101562 727.9496459960938 660.2009887695312 727.7838134765625 660.3682861328125 C 727.6179809570312 660.535400390625 727.3925170898438 660.6296997070312 727.1571044921875 660.6303100585938 Z M 711.3779296875 660.6303100585938 L 708.5755004882812 660.6303100585938 C 708.33984375 660.6296997070312 708.114501953125 660.535400390625 707.9486694335938 660.3682861328125 C 707.7828369140625 660.2009887695312 707.6904296875 659.9746704101562 707.6917114257812 659.7393798828125 L 707.6917114257812 656.9149780273438 C 707.6904296875 656.6795654296875 707.7828369140625 656.4532470703125 707.9486694335938 656.2860717773438 C 708.114501953125 656.1189575195312 708.33984375 656.0245971679688 708.5752563476562 656.0240478515625 L 711.3801879882812 656.0240478515625 C 711.8676147460938 656.0253295898438 712.2623901367188 656.4202270507812 712.2637329101562 656.9075317382812 L 712.2639770507812 659.7393798828125 L 712.2615356445312 659.7393798828125 C 712.2627563476562 659.9746704101562 712.1703491210938 660.2009887695312 712.0045166015625 660.3682861328125 C 711.8386840820312 660.535400390625 711.6133422851562 660.6296997070312 711.3779296875 660.6303100585938 Z M 719.2745971679688 660.6254272460938 L 716.469970703125 660.6254272460938 C 715.9791870117188 660.6226806640625 715.58349609375 660.22265625 715.5861206054688 659.7318115234375 L 715.5863647460938 656.9075317382812 C 715.5848388671875 656.672119140625 715.67724609375 656.44580078125 715.8430786132812 656.2786865234375 C 716.0089111328125 656.1115112304688 716.2344970703125 656.0171508789062 716.4699096679688 656.0166015625 L 719.2748413085938 656.0166015625 C 719.51025390625 656.0171508789062 719.73583984375 656.1115112304688 719.9016723632812 656.2786865234375 C 720.0674438476562 656.44580078125 720.1597900390625 656.672119140625 720.158447265625 656.9075317382812 L 720.158447265625 659.7393798828125 C 720.1571655273438 660.2271118164062 719.7625732421875 660.6226806640625 719.2745971679688 660.6254272460938 Z M 727.1571044921875 653.0189819335938 L 724.3524169921875 653.0189819335938 C 724.1170654296875 653.015869140625 723.8927001953125 652.9185791015625 723.7293701171875 652.748779296875 C 723.5661010742188 652.5791625976562 723.4776000976562 652.3511962890625 723.4833984375 652.1157836914062 L 723.4832763671875 652.1157836914062 L 723.4832763671875 649.29150390625 C 723.4819946289062 649.0558471679688 723.5745239257812 648.8297119140625 723.7401123046875 648.66259765625 C 723.9059448242188 648.495361328125 724.1315307617188 648.4010620117188 724.366943359375 648.4005126953125 L 727.1717529296875 648.4005126953125 C 727.4071655273438 648.4010620117188 727.6327514648438 648.495361328125 727.798583984375 648.66259765625 C 727.9641723632812 648.8297119140625 728.0567016601562 649.0558471679688 728.055419921875 649.29150390625 L 728.0408325195312 652.1304321289062 C 728.0421752929688 652.6198120117188 727.6464233398438 653.0176391601562 727.1571044921875 653.0189819335938 Z M 711.3779296875 653.0189819335938 L 708.5755004882812 653.0189819335938 C 708.0859985351562 653.0176391601562 707.6903076171875 652.6198120117188 707.6917114257812 652.1304321289062 L 707.6917114257812 649.3035278320312 C 707.6903076171875 648.8137817382812 708.0855102539062 648.415283203125 708.5752563476562 648.4125366210938 L 711.3801879882812 648.4125366210938 C 711.8680419921875 648.415283203125 712.2623901367188 648.8106079101562 712.2639770507812 649.298583984375 L 712.2615356445312 652.1304321289062 C 712.2628784179688 652.6198120117188 711.8671875 653.0176391601562 711.3779296875 653.0189819335938 Z M 716.469970703125 653.0067138671875 C 716.2344970703125 653.0060424804688 716.0089111328125 652.9116821289062 715.8430786132812 652.7445678710938 C 715.6773681640625 652.577392578125 715.5848388671875 652.3511962890625 715.5861206054688 652.1156616210938 L 715.5863647460938 649.29150390625 C 715.5848388671875 649.0558471679688 715.6773681640625 648.8297119140625 715.8430786132812 648.66259765625 C 716.0089111328125 648.495361328125 716.2344970703125 648.4010620117188 716.4699096679688 648.4005126953125 L 719.2748413085938 648.4005126953125 C 719.51025390625 648.4010620117188 719.73583984375 648.495361328125 719.9016723632812 648.66259765625 C 720.0672607421875 648.8297119140625 720.1597900390625 649.0558471679688 720.158447265625 649.29150390625 L 720.158447265625 652.1304931640625 L 720.158447265625 652.1304321289062 C 720.1531372070312 652.6148681640625 719.759521484375 653.0054321289062 719.2748413085938 653.006591796875 L 716.469970703125 653.0067138671875 Z" stroke="none" fill="#4789c8"/>
    </g>
    <path id="Path_124901" data-name="Path 124901" d="M10,11h5.6" transform="translate(1094.317 1361.141)" fill="none" stroke="#4789c8" stroke-linecap="round" stroke-linejoin="round" stroke-miterlimit="10" stroke-width="3"/>
    <path id="Path_124903" data-name="Path 124903" d="M10,11h5.6" transform="translate(1044.317 1361.141)" fill="none" stroke="#4789c8" stroke-linecap="round" stroke-linejoin="round" stroke-miterlimit="10" stroke-width="3"/>
    <path id="Path_124902" data-name="Path 124902" d="M10,14h5.6" transform="translate(1094.317 1367.522)" fill="none" stroke="#4789c8" stroke-linecap="round" stroke-linejoin="round" stroke-miterlimit="10" stroke-width="3"/>
    <path id="Path_124904" data-name="Path 124904" d="M10,14h5.6" transform="translate(1044.317 1367.522)" fill="none" stroke="#4789c8" stroke-linecap="round" stroke-linejoin="round" stroke-miterlimit="10" stroke-width="3"/>
  </g>
</svg>
